<svg width="400" height="68" viewBox="0 0 400 68" fill="none" xmlns="http://www.w3.org/2000/svg">
<path d="M357.9 65.9068C355.888 65.9068 353.876 65.8268 351.864 65.8268C349.852 65.7468 347.841 65.7468 345.829 65.7468H343.495C342.073 65.7087 340.663 65.4648 339.311 65.0228C336.172 64.0572 334.241 61.3212 334.08 57.7804C333.92 54.642 334.64 51.5836 335.368 48.4452C335.608 47.5596 335.768 46.594 336.008 45.7092C338.342 34.6845 340.595 23.9013 343.01 13.1982C344.297 7.56542 347.114 4.10464 351.62 2.57584C354.077 1.84701 356.624 1.46704 359.187 1.44705C361.521 1.36705 363.854 1.28705 366.269 1.28705C368.522 1.28705 370.856 1.28705 373.27 1.36705C377.857 1.52705 382.363 1.76705 386.549 3.53984C398.621 8.44862 400.149 19.795 399.989 26.0725C399.749 36.3733 394.839 48.122 387.837 55.2844C382.775 60.4759 376.17 63.8916 369.007 65.022C365.344 65.6897 361.623 65.9861 357.9 65.9068ZM353.554 62.7684H359.67C361.119 62.7684 362.326 62.7684 363.453 62.6884C369.398 62.5313 375.186 60.7502 380.191 57.538C387.594 52.79 392.423 45.7892 395.078 36.1325C396.849 29.6949 397.251 24.4637 396.285 19.555C394.515 10.4614 388.157 5.31503 377.938 4.74783C374.397 4.50783 370.936 4.50783 367.959 4.50783H359.67C357.784 4.44062 355.895 4.57471 354.037 4.90783C349.611 5.71263 346.955 8.85101 345.748 14.243C343.012 26.6357 340.839 37.0973 338.747 46.9956C338.107 50.134 337.621 53.514 337.138 57.618C336.898 59.8716 338.103 61.5612 340.518 62.2852C341.562 62.6017 342.646 62.7634 343.737 62.7652H348C349.048 62.8492 353.554 62.7684 353.554 62.7684Z" fill="black"/>
<path d="M9.53282 67.0339C7.70602 67.0766 5.90076 66.6324 4.30244 65.7467C2.12965 64.5395 0.841659 62.6883 0.196862 59.8715C-0.283136 57.6179 0.196862 55.3651 0.756859 53.0316C0.916858 52.4716 0.996858 51.8244 1.15686 51.2612C2.92725 42.6508 4.77844 33.8788 6.62883 25.5101C7.51443 21.2453 8.39922 17.0605 9.36482 12.7957C10.4112 7.48456 12.8248 4.02458 16.8488 1.85179C18.7114 0.865435 20.7836 0.340601 22.8912 0.321394C25.3551 0.239391 27.7625 1.07044 29.6511 2.65498C32.1455 4.90857 32.9503 7.96616 32.1455 12.2309C31.9855 12.9549 31.9055 13.7597 31.7455 14.5645L31.3455 16.4957L30.3799 20.3581L38.9103 12.9549L42.5319 9.81655C45.1879 7.48296 48.0038 4.98857 50.8206 2.73498C52.586 1.1945 54.8307 0.313324 57.1726 0.241394C58.601 0.283452 60.0024 0.640776 61.2766 1.28779C62.4133 1.87551 63.4065 2.70664 64.1854 3.72199C64.9643 4.73735 65.5098 5.91195 65.783 7.16216C66.0105 8.39891 65.955 9.67114 65.6205 10.8834C65.2861 12.0956 64.6814 13.2163 63.8518 14.1613C62.0418 16.1853 60.1065 18.0935 58.0574 19.8749C57.2526 20.5989 56.3678 21.3237 55.563 22.1285C54.1142 23.4965 50.815 26.3133 49.2862 27.6813C49.5875 28.5702 49.9644 29.4318 50.4126 30.2565C51.3782 32.4292 52.2638 34.602 53.2294 36.8556C54.9998 41.1204 56.851 45.5468 58.8622 49.8156C62.0006 56.6555 58.0574 62.0475 53.3902 64.8643C51.3227 66.1916 48.926 66.9161 46.4694 66.9563C45.7386 66.956 45.01 66.8755 44.2967 66.7163C42.8783 66.496 41.5407 65.9137 40.4131 65.0257C39.2854 64.1377 38.4058 62.9739 37.8591 61.6467L35.9279 57.1403C34.3183 53.4388 32.6287 49.6564 31.0991 45.9548C30.8591 45.3948 29.8119 42.7356 29.8119 42.7356C29.0879 43.1356 26.9151 45.15 26.3519 45.4716C24.1792 46.9204 24.4207 48.5292 24.0184 50.2996C23.4372 53.5602 22.4924 56.7454 21.2016 59.7955C20.1274 61.972 18.4648 63.8039 16.4023 65.0834C14.3398 66.3628 11.9599 67.0385 9.53282 67.0339ZM33.1919 43.7772C35.5255 49.1692 38.0199 54.8011 40.3567 60.3547C40.7879 61.4851 41.5641 62.451 42.5751 63.1154C43.5862 63.7798 44.7808 64.109 45.9895 64.0563H46.3095C47.352 64.0336 48.3841 63.8445 49.367 63.4963C52.5862 62.4499 54.9998 60.4387 56.0462 57.9435C57.0926 55.4483 56.9318 52.5516 55.4062 49.3332C53.1526 44.5852 51.0606 39.6764 49.0486 34.8484C48.0022 32.354 46.9566 29.7789 45.8295 27.2837C45.8295 27.1237 45.8295 27.0437 45.8295 26.9637L45.9895 26.8037C49.2886 23.9069 52.5878 21.0093 55.6462 18.2733L56.531 17.4685C58.0598 16.1005 59.6694 14.6517 61.1182 13.1229C62.1007 12.1239 62.7027 10.8125 62.8196 9.4162C62.9365 8.01986 62.561 6.62664 61.7582 5.47817C61.2295 4.79399 60.5443 4.24683 59.76 3.88277C58.9758 3.51871 58.1156 3.3484 57.2518 3.38618C56.2781 3.39717 55.3179 3.61534 54.435 4.02618C53.7418 4.3096 53.0918 4.68875 52.5038 5.15257C46.227 10.5445 41.0767 14.9701 36.3287 19.1525C33.1903 21.8885 30.1319 24.5445 27.0743 27.2805L25.6255 28.5677C25.8655 27.5213 26.0255 26.4757 26.2655 25.5101C27.3119 20.6013 28.4383 15.5317 29.2431 10.5421C29.6431 8.36936 29.3231 6.67976 28.3575 5.47257C27.3919 4.26538 25.7887 3.62138 23.4544 3.46058H22.8944C17.58 3.46058 13.5568 7.00136 12.3496 12.6341C11.1424 18.2669 9.93522 23.8197 8.80882 29.3725C7.76243 34.0396 6.79683 38.6268 5.83124 43.2924C4.86564 47.638 3.98004 52.2252 3.09525 56.8123C2.37125 60.3531 4.14164 63.0083 7.68243 63.7331C8.34128 63.8922 9.01664 63.9727 9.69442 63.9731C11.8391 63.9764 13.928 63.2897 15.6524 62.0145C17.3769 60.7393 18.6453 58.9431 19.2704 56.8915C20.0922 54.2219 20.7639 51.5083 21.2824 48.7636L21.6024 47.3148C21.7374 46.3209 22.2225 45.4079 22.9704 44.7396C25.0639 42.9724 27.1567 41.1212 29.3295 39.19L30.6975 37.9828C30.6975 38.0636 33.1919 43.7772 33.1919 43.7772Z" fill="black"/>
<path d="M276.462 67.0339C274.647 67.0546 272.854 66.6407 271.232 65.8267C269.793 65.0449 268.632 63.8349 267.911 62.3643C267.19 60.8937 266.944 59.2353 267.208 57.6188C268.173 52.066 269.381 46.5132 270.507 41.122L271.147 38.0644C272.837 30.0173 274.608 21.7285 276.458 13.6006C277.424 9.33577 279.113 6.43818 281.93 4.42699C284.053 2.83385 286.603 1.90921 289.253 1.771C290.863 1.69101 292.633 1.69101 294.806 1.69101H303.014C304.543 1.69101 306.072 1.69101 307.52 1.61101C309.049 1.61101 310.498 1.53101 312.027 1.53101C314.119 1.53101 315.889 1.61101 317.499 1.69101C324.983 2.331 329.731 4.91019 332.306 10.0606C334.967 15.2085 334.487 20.6005 330.942 26.8773C329.417 29.5918 327.332 31.9509 324.826 33.7981C324.021 34.2781 322.572 35.0053 322.572 35.0053C323.423 35.499 324.231 36.0643 324.987 36.6948C327.401 39.1092 327.562 42.2476 327.32 45.2252C327.24 46.754 327.08 48.2028 326.92 49.7316C326.76 51.502 326.6 53.2724 326.44 55.1236C325.88 63.8147 319.198 66.8723 313.645 66.8723H313.565C308.576 66.8723 305.518 65.1019 304.231 61.6419C303.742 59.807 303.579 57.9004 303.751 56.0092V54.6404C303.751 53.1916 303.911 51.7436 303.991 50.214C304.071 49.4092 304.151 48.6044 304.231 47.7996C304.297 47.3562 304.267 46.9037 304.142 46.4732C304.017 46.0427 303.8 45.6442 303.507 45.3052C302.922 44.6744 302.113 44.2986 301.253 44.2588C298.839 44.0988 296.828 44.0188 294.976 44.0188H292.08C292.08 44.0188 291.76 45.6284 291.52 46.3524C291.121 47.8101 290.799 49.2875 290.554 50.7788C289.994 53.2732 289.428 55.9292 288.623 58.3435C287.785 60.8982 286.154 63.1187 283.967 64.6818C281.779 66.2449 279.15 67.0689 276.462 67.0339ZM296.177 41.0404C297.545 41.0404 298.672 41.0404 299.718 41.1204C302.535 41.2004 304.547 42.006 305.834 43.454C307.041 44.822 307.524 46.834 307.283 49.3284C306.963 52.4668 306.803 55.766 306.643 58.5827C306.531 59.585 306.777 60.5945 307.336 61.4336C307.896 62.2726 308.733 62.8875 309.701 63.1699C311.014 63.6572 312.405 63.9025 313.805 63.8939C318.553 63.8939 323.462 60.9971 323.543 54.5588C323.634 51.6246 323.875 48.697 324.267 45.7876C324.991 40.8788 323.707 38.2228 319.519 35.8893C319.039 35.5693 317.829 35.0045 317.346 34.7629L320.082 33.3949C322.818 32.3485 325.876 30.8197 327.486 27.6813C329.095 24.4621 330.141 22.3701 330.624 19.6341C332.073 11.587 328.773 6.67418 320.646 5.06859C317.166 4.46748 313.634 4.22488 310.104 4.34459H306.559C303.179 4.34459 299.718 4.42459 296.419 4.42459C294.488 4.42459 292.556 4.50459 290.624 4.50459C284.831 4.58459 280.887 7.64298 279.68 13.2758C277.668 22.1277 275.817 31.1405 273.967 39.8356L272.76 45.5492C272.6 46.4348 272.36 47.2388 272.2 48.1244C271.56 51.102 270.832 54.2404 270.429 57.3787C270.109 59.3907 270.429 60.9195 271.314 61.9659C271.775 62.5071 272.341 62.9499 272.977 63.2679C273.613 63.5859 274.306 63.7727 275.016 63.8171C275.603 63.8821 276.195 63.9089 276.786 63.8971C281.856 63.8971 285.396 60.9195 286.684 55.6084C287.65 51.5044 288.536 47.4004 289.34 43.3764L289.74 41.2844C289.74 41.1244 289.82 41.0444 289.82 40.9644H293.767C294.568 41.0341 295.373 41.0594 296.177 41.0404Z" fill="black"/>
<path d="M197.678 65.8267H177.963C173.376 65.7467 170.158 63.4931 169.272 59.7915C168.804 57.7826 168.776 55.696 169.192 53.6756C171.767 41.122 174.503 28.1653 177.642 13.9222C178.768 8.77177 180.941 5.47259 184.402 3.7022C186.304 2.63277 188.42 1.99963 190.597 1.84861C195.666 1.60861 201.139 1.44861 206.691 1.44861H211.921C216.025 1.52861 220.693 1.68861 225.121 3.3798C230.754 5.63339 233.571 9.49577 233.49 15.0485C233.41 21.0037 231.398 25.7517 227.455 29.1285C226.815 29.6085 224.397 31.3821 224.397 31.3821C225.371 32.0309 226.312 32.7291 227.214 33.4741C230.111 36.6932 230.997 40.6364 230.031 45.5452C227.939 56.1676 220.455 63.1691 209.028 65.1803C206.765 65.5517 204.48 65.7655 202.188 65.8203L197.678 65.8267ZM179.652 62.8491H192.286C195.988 62.8491 199.046 62.8491 201.862 62.7691C204.734 62.7231 207.592 62.3724 210.389 61.7227C218.517 59.7915 223.829 55.2852 226.162 48.2828C228.737 40.4772 226.886 35.0829 220.288 31.3029C221.253 30.7429 222.058 30.1765 223.024 29.6933C224.671 28.8393 226.11 27.6318 227.237 26.1571C228.364 24.6825 229.151 22.9771 229.542 21.1629C229.611 20.7514 229.718 20.3473 229.862 19.9557C230.034 19.3475 230.167 18.7293 230.262 18.1045C230.902 14.7245 230.342 11.9078 228.653 9.65497C226.641 6.99898 223.019 5.30939 218.352 4.90699C215.133 4.58699 211.592 4.50699 207.408 4.50699C204.269 4.50699 201.131 4.58699 197.993 4.66699C195.498 4.74699 192.842 4.82699 190.348 4.82699C189.059 4.7774 187.779 5.05374 186.625 5.63043C185.472 6.20713 184.482 7.06553 183.749 8.12618C182.456 9.99288 181.477 12.0589 180.852 14.2421C179.806 18.4269 178.921 22.6917 178.035 26.8765C177.795 27.9229 177.635 28.9685 177.395 30.0149L176.51 34.3605C175.061 41.3612 173.532 48.6004 172.164 55.686C171.939 56.545 171.901 57.4424 172.054 58.3172C172.207 59.1919 172.546 60.0236 173.049 60.7555C174.014 62.0427 175.705 62.7675 178.038 62.9283H179.085L179.652 62.8491Z" fill="black"/>
<path d="M92.3412 67.3595C88.0301 67.3959 83.7574 66.5469 79.7877 64.8651C70.7725 61.1595 65.9414 54.3196 65.4614 44.5012C64.8214 31.3813 69.2437 20.1981 78.5813 11.1854C84.6949 5.31101 92.5812 1.60942 101.836 0.31983C103.407 0.0959602 104.994 -0.0109995 106.581 -0.000168502C111.596 0.0161638 116.535 1.23011 120.986 3.54062C127.746 7.0006 131.85 12.795 133.218 20.7621C133.378 21.8085 133.458 22.9349 133.538 24.0613C133.538 24.5413 133.618 25.1077 133.618 25.5901C132.978 37.9829 128.951 47.8004 121.305 55.6068C115.431 61.5619 107.945 65.2635 98.8532 66.7923C96.7049 67.1837 94.5248 67.3736 92.3412 67.3595ZM106.341 3.05742C101.575 3.05874 96.8527 3.95985 92.4212 5.71341C83.6484 9.03304 76.5169 15.6445 72.5437 24.1413C69.2377 30.7937 67.8183 38.225 68.4397 45.6276C68.5979 48.2056 69.2871 50.723 70.4642 53.0221C71.6412 55.3211 73.2807 57.3521 75.2797 58.9876C78.9013 61.9651 83.4077 63.5747 88.9596 64.1379C90.3233 64.2716 91.6937 64.325 93.0636 64.2979C97.7559 64.3792 102.418 63.5324 106.782 61.8063C111.146 60.0801 115.126 57.5086 118.493 54.2396C127.828 45.3068 131.773 34.0413 130.162 20.7629C129.838 18.0459 128.92 15.4335 127.474 13.1108C126.028 10.7881 124.088 8.81213 121.792 7.323C117.688 4.50621 112.538 3.05822 106.341 3.05822V3.05742Z" fill="black"/>
<path d="M244.192 67.0339C242.567 67.0781 240.96 66.6919 239.532 65.9146C238.105 65.1372 236.908 63.9964 236.064 62.6076C234.857 60.5156 234.537 58.1012 235.257 54.962C236.384 49.8116 237.43 44.6612 238.557 39.5109C240.246 31.7853 241.856 24.0597 243.546 16.335L243.786 15.2886C244.51 11.9894 245.154 8.851 247.005 6.11501C248.235 4.38928 249.85 2.97427 251.723 1.98253C253.595 0.990786 255.673 0.449676 257.792 0.402241C258.576 0.398256 259.358 0.47872 260.125 0.64224C265.276 1.76863 267.609 5.47022 267.046 11.8278L266.321 15.4494C265.681 18.6686 264.873 22.4501 264.069 26.2325L262.377 34.2005C260.849 41.2821 259.32 48.6052 257.71 55.6868C256.422 61.5612 252.962 65.2627 247.49 66.6307C246.409 66.8884 245.303 67.0237 244.192 67.0339ZM257.952 3.37983C257.194 3.37571 256.438 3.45621 255.698 3.61983C251.274 4.50622 248.537 7.48381 247.411 12.4734C244.836 24.4637 242.341 36.2133 239.525 49.33C239.445 49.81 239.285 50.2956 239.205 50.8588C238.672 53.1138 238.269 55.3976 237.997 57.6988C237.677 60.998 239.285 63.2515 242.424 63.8147C243.137 63.974 243.866 64.0545 244.597 64.0547C247.006 64.0594 249.342 63.2274 251.206 61.7009C253.07 60.1744 254.346 58.0481 254.817 55.6852C256.909 46.1892 258.921 36.5325 260.933 27.1173L262.38 20.3573C262.94 17.863 263.427 15.4486 263.829 13.4366L264.309 11.183V11.023C264.309 6.67741 263.585 4.18302 259.722 3.61983C259.145 3.46655 258.551 3.38593 257.953 3.37983H257.952Z" fill="black"/>
<path d="M145.05 67.0332C143.455 67.0051 141.877 66.7059 140.383 66.1484C136.842 64.7804 134.669 60.4348 135.474 56.3308C137.486 46.5933 140.222 33.6373 143.039 20.6814C143.199 20.0414 143.279 19.3942 143.439 18.7502C144.083 15.1903 145.025 11.6908 146.255 8.28864C147.234 5.95031 148.875 3.9497 150.978 2.53384C153.08 1.11798 155.551 0.348865 158.086 0.321472C158.897 0.321585 159.705 0.401977 160.5 0.561471C165.651 1.68787 167.743 4.74625 167.743 11.023L167.343 12.9542C166.943 14.9662 166.377 17.5414 165.894 20.1966L165.654 21.4038C163.239 32.5893 160.825 44.0973 158.331 55.4436C157.445 59.3868 155.675 62.2836 152.939 64.2148C150.686 65.989 147.916 66.9787 145.05 67.0332ZM158.57 3.37906C152.937 3.37906 149.155 6.59824 147.867 12.3918C146.82 17.1398 145.775 21.9678 144.808 26.6317L143.601 32.1845L142.233 38.4613C141.026 44.1749 139.739 50.13 138.531 56.0044C138.267 57.0185 138.231 58.0788 138.425 59.1086C138.62 60.1384 139.041 61.1122 139.658 61.9596C140.253 62.6501 140.996 63.197 141.832 63.5593C142.668 63.9216 143.575 64.0899 144.486 64.0516C145.106 64.0348 145.724 63.9814 146.337 63.8916C151.487 62.926 154.384 59.8676 155.511 54.4764C156.96 47.4757 158.489 40.5565 159.938 33.5533C160.903 28.9661 161.869 24.3798 162.915 19.7934C163.395 17.4598 163.881 15.1262 164.283 13.1942L164.683 11.0214V10.8614C164.683 5.55025 162.913 3.37746 158.567 3.37746L158.57 3.37906Z" fill="black"/>
<path d="M354.118 50.2956C355.486 44.0988 356.774 37.8221 358.142 31.5453L359.51 25.0269L359.91 23.0957C360.31 21.0838 360.714 19.0718 361.278 17.0606C361.278 16.9806 361.438 16.8206 361.518 16.7406H364.414C366.675 16.6755 368.937 16.8094 371.174 17.1406C377.612 18.1062 380.59 22.1301 380.026 28.9701C379.728 33.3862 378.58 37.7031 376.646 41.6845C373.91 46.9956 369.404 49.8124 362.966 50.2948C362.566 50.2948 362.081 50.3748 361.518 50.3748H356.126C355.454 50.3935 354.782 50.3668 354.114 50.2948L354.118 50.2956ZM363.694 19.7158C363.694 19.7158 363.614 20.1158 363.214 22.2101C363.054 23.1757 362.814 24.1413 362.574 25.1069C362.414 25.6669 362.334 26.2333 362.174 26.7965C360.886 32.6709 359.679 38.5453 358.391 44.4204C358.231 44.9804 357.751 47.5588 357.751 47.5588C357.751 47.5588 361.211 47.6388 361.855 47.6388C365.798 47.6388 370.626 45.3852 372.558 42.5693C375.697 38.1429 376.421 32.9125 376.984 28.7293V28.5693C376.984 23.1773 375.374 20.9246 370.949 20.1198C369.902 19.9598 368.776 19.8798 367.73 19.7998C367.17 19.7998 366.683 19.7198 366.12 19.7198C366.027 19.7958 363.694 19.7158 363.694 19.7158Z" fill="black"/>
<path d="M302.132 31.2237H291.671C292.636 26.7173 293.763 21.9693 294.729 17.1437C294.889 16.4197 294.889 16.4197 295.534 16.4197H295.614C297.787 16.4997 299.96 16.4997 301.73 16.4997H307.524C307.981 16.4885 308.438 16.5153 308.891 16.5797C313.479 17.4653 314.203 19.6373 314.363 21.4077C314.603 24.4653 313.398 28.2477 310.099 29.7773C308.189 30.516 306.184 30.9767 304.144 31.1453C303.476 31.2167 302.804 31.2429 302.132 31.2237ZM297.465 19.2333C297.465 19.2333 297.145 20.2797 296.66 22.6133C296.58 22.9333 296.5 23.2533 296.42 23.6597C296.329 23.8911 296.275 24.1354 296.26 24.3837C295.94 25.9125 295.62 28.1661 295.62 28.1661C295.62 28.1661 298.035 28.3261 298.92 28.3261H304.071C304.802 28.3258 305.53 28.2453 306.244 28.0861H306.324C307.682 28.0005 308.953 27.39 309.869 26.3838C310.785 25.3775 311.274 24.0543 311.232 22.6941C311.232 20.6821 310.106 19.3949 308.094 19.3949C307.289 19.3949 306.484 19.3949 305.68 19.3149C304.07 19.3149 302.38 19.2349 300.771 19.1549C300.604 19.2333 297.465 19.2333 297.465 19.2333Z" fill="black"/>
<path d="M195.585 51.9852H188.585L188.985 50.134C189.545 47.5588 190.031 44.9836 190.594 42.4893C190.754 41.8493 190.834 41.2021 190.994 40.6381C191.234 39.6725 191.474 38.6261 191.634 37.5797C191.634 37.4997 191.634 37.4197 191.714 37.4197H199.279C201.21 37.4197 202.739 37.4197 204.108 37.4997C208.051 37.5797 210.948 39.8333 211.109 42.8917C211.248 44.5584 210.857 46.2267 209.992 47.6578C209.126 49.0889 207.83 50.2096 206.289 50.8596C204.573 51.5657 202.75 51.974 200.897 52.0668C199.368 51.9852 197.678 51.9852 195.585 51.9852ZM200.575 40.2365H194.298C194.298 40.2365 194.218 40.7165 193.978 41.7653C193.658 43.1333 193.338 44.5012 193.013 46.1108C192.933 46.6708 192.373 49.2492 192.373 49.2492H193.902C194.867 49.1692 195.833 49.1692 196.718 49.1692C198.79 49.1615 200.859 49.0279 202.915 48.7692C204.629 48.3732 206.143 47.3732 207.18 45.9524C207.609 45.449 207.889 44.8356 207.988 44.1815C208.087 43.5274 208.001 42.8587 207.74 42.2509C207.18 41.0437 205.889 40.3997 204.199 40.3197C203.069 40.2365 201.865 40.2365 200.575 40.2365Z" fill="black"/>
<path d="M204.841 29.4493H204.361C203.721 29.4493 203.074 29.3693 202.51 29.3693H193.414V29.2893C193.814 27.5189 194.218 25.6677 194.621 23.8973C195.181 21.0806 195.828 18.3446 196.472 15.5278C196.472 15.4478 196.552 15.3678 196.632 15.2878H200.334C202.828 15.2878 205.726 15.2878 208.542 15.5278C210.714 15.6878 212.243 16.4134 213.048 17.7814C214.013 19.391 214.094 21.7246 213.128 24.2189C212.392 25.7928 211.22 27.1223 209.751 28.0495C208.282 28.9767 206.578 29.4626 204.841 29.4493ZM200.495 26.5525H203.07C203.796 26.5692 204.521 26.5424 205.243 26.4725C206.413 26.4274 207.541 26.0254 208.476 25.3205C209.411 24.6157 210.108 23.6417 210.474 22.5293C210.641 22.0708 210.707 21.581 210.666 21.0944C210.624 20.6078 210.477 20.1361 210.233 19.7126C209.96 19.3429 209.61 19.0366 209.207 18.8145C208.804 18.5923 208.359 18.4596 207.9 18.4254C207.421 18.3539 206.935 18.3271 206.451 18.3454H199.048C199.048 18.3454 198.648 19.6326 198.162 21.8862C198.082 22.3661 197.922 23.0125 197.762 23.7373C197.602 24.6229 197.122 26.5541 197.122 26.5541C197.122 26.5541 199.134 26.6341 199.939 26.6341L200.495 26.5525Z" fill="black"/>
<path d="M96.0412 51.9852C94.2615 52.0026 92.5008 51.6175 90.8908 50.8588C87.5108 49.2492 85.7405 46.3524 85.2581 41.5236V39.5924C85.8181 30.4189 88.2356 24.2221 92.9836 19.4741C95.5921 16.9423 99.0852 15.5276 102.72 15.531C104.575 15.5395 106.409 15.9226 108.112 16.6573C109.551 17.2878 110.795 18.2919 111.715 19.5655C112.635 20.839 113.197 22.3356 113.343 23.8997C114.55 32.8325 112.296 40.7188 106.583 47.398C105.239 48.8509 103.608 50.0088 101.794 50.7984C99.979 51.588 98.0202 51.9922 96.0412 51.9852ZM103.204 18.3477C101.28 18.3423 99.3841 18.8002 97.6752 19.6826C95.9663 20.5651 94.4951 21.8461 93.386 23.4173C89.6036 28.6477 87.914 34.9253 88.3164 42.0068C88.5564 45.5476 90.65 48.2036 93.7884 48.686C94.5591 48.8166 95.3408 48.8702 96.122 48.846C97.8681 48.8782 99.5966 48.4934 101.164 47.7236C102.732 46.9538 104.093 45.8211 105.135 44.4196C108.676 40.074 110.446 34.7629 110.768 27.6005V25.4293C110.448 20.9229 107.629 18.1869 103.364 18.1869L103.204 18.3477Z" fill="black"/>
</svg>
